<svg xmlns="http://www.w3.org/2000/svg" width="256" height="256" viewBox="0 0 100 100"><rect width="100" height="100" rx="20" fill="#7d6ee7"></rect><path d="M40.37 34.98L40.37 34.98Q40.37 36.80 39.46 38.13Q38.55 39.47 37.36 40.23L37.36 40.23Q35.54 39.05 33.48 38.20Q31.41 37.37 28.68 37.37L28.68 37.37Q23.29 37.37 20.42 40.69Q17.55 44.02 17.55 50.04L17.55 50.04Q17.55 56.27 20.67 59.45Q23.78 62.64 29.31 62.64L29.31 62.64Q32.18 62.64 34.18 61.87Q36.17 61.10 37.99 60.12L37.99 60.12Q39.18 61.10 39.85 62.46Q40.51 63.83 40.51 65.65L40.51 65.65Q40.51 67.26 39.67 68.59Q38.83 69.92 36.80 70.83L36.80 70.83Q35.54 71.39 33.23 71.95Q30.92 72.51 27.63 72.51L27.63 72.51Q22.87 72.51 18.74 71.18Q14.61 69.84 11.53 67.12Q8.45 64.39 6.70 60.15Q4.95 55.92 4.95 50.04L4.95 50.04Q4.95 44.58 6.67 40.38Q8.38 36.18 11.36 33.30Q14.33 30.44 18.32 28.97Q22.31 27.49 26.86 27.49L26.86 27.49Q33.30 27.49 36.84 29.59Q40.37 31.70 40.37 34.98ZM76.35 60.82L76.35 60.82Q75.44 61.59 74.01 62.04Q72.57 62.50 70.69 62.50L70.69 62.50Q68.16 62.50 66.52 61.87Q64.88 61.23 64.38 59.70L64.38 59.70Q62.42 53.54 61.16 49.72Q59.91 45.91 59.20 43.03L59.20 43.03L58.85 43.03Q58.64 47.17 58.54 50.56Q58.43 53.95 58.40 57.18Q58.36 60.40 58.26 63.69Q58.15 66.98 57.94 70.97L57.94 70.97Q57.03 71.31 55.56 71.56Q54.09 71.81 52.62 71.81L52.62 71.81Q49.54 71.81 47.83 70.83Q46.11 69.84 46.11 67.26L46.11 67.26Q46.11 65.09 46.32 60.92Q46.53 56.76 46.85 51.72Q47.16 46.67 47.51 41.36Q47.86 36.04 48.14 31.55L48.14 31.55Q48.70 30.65 50.59 29.59Q52.48 28.55 55.91 28.55L55.91 28.55Q59.63 28.55 61.72 29.70Q63.82 30.86 64.80 33.45L64.80 33.45Q65.44 35.13 66.17 37.30Q66.91 39.47 67.64 41.78Q68.38 44.09 69.07 46.36Q69.78 48.64 70.33 50.45L70.33 50.45L70.69 50.45Q72.36 44.58 74.05 39.08Q75.72 33.59 77.13 29.88L77.13 29.88Q78.17 29.31 79.82 28.93Q81.47 28.55 83.50 28.55L83.50 28.55Q86.92 28.55 89.09 29.56Q91.27 30.58 91.62 32.47L91.62 32.47Q91.89 33.87 92.21 36.77Q92.53 39.67 92.88 43.31Q93.22 46.95 93.57 51.02Q93.92 55.08 94.24 58.82Q94.56 62.57 94.77 65.68Q94.97 68.80 95.05 70.48L95.05 70.48Q93.85 71.18 92.56 71.49Q91.27 71.81 89.23 71.81L89.23 71.81Q86.57 71.81 84.75 70.90Q82.94 69.98 82.80 67.33L82.80 67.33Q82.38 59.70 82.27 53.61Q82.16 47.52 81.95 43.39L81.95 43.39L81.60 43.39Q80.91 46.12 79.57 50.25Q78.25 54.38 76.35 60.82Z" fill="#fff"></path></svg>